<svg xmlns="http://www.w3.org/2000/svg" width="256" height="256" viewBox="0 0 100 100"><rect width="100" height="100" rx="20" fill="#000000"></rect><path fill="#fff" d="M32.84 59.49L32.84 59.49Q32.38 59.82 31.64 60.08Q30.89 60.34 29.98 60.34L29.98 60.34Q28.94 60.34 28.13 60.01Q27.31 59.69 26.99 58.97L26.99 58.97Q23.48 51.69 20.94 45.65Q18.41 39.60 16.85 35.64L16.85 35.64L16.59 35.64Q16.39 40.51 16.17 44.70Q15.94 48.90 15.68 52.89Q15.42 56.89 15.16 60.99Q14.90 65.08 14.64 69.76L14.64 69.76Q14.25 69.89 13.63 70.02Q13.01 70.15 12.30 70.15L12.30 70.15Q10.87 70.15 10.28 69.57Q9.70 68.98 9.70 67.88L9.70 67.88Q9.70 67.23 9.80 65.08Q9.89 62.94 10.09 59.88Q10.28 56.83 10.51 53.12Q10.74 49.42 11.03 45.58Q11.32 41.75 11.62 38.04Q11.91 34.34 12.17 31.28L12.17 31.28Q12.69 30.83 13.66 30.44Q14.64 30.05 15.87 30.05L15.87 30.05Q18.86 30.05 20.03 32.45L20.03 32.45Q21.27 34.99 22.54 37.81Q23.80 40.64 25.07 43.57Q26.34 46.49 27.54 49.35Q28.74 52.21 29.85 54.81L29.85 54.81L30.11 54.81Q31.54 51.37 32.97 48.02Q34.40 44.67 35.77 41.55Q37.13 38.43 38.37 35.70Q39.60 32.97 40.57 30.70L40.57 30.70Q41.16 30.37 42.07 30.21Q42.98 30.05 43.76 30.05L43.76 30.05Q46.81 30.05 47.27 32.13L47.27 32.13Q47.53 33.30 47.85 35.99Q48.18 38.69 48.51 42.20Q48.83 45.71 49.12 49.74Q49.41 53.77 49.67 57.51Q49.94 61.25 50.13 64.40Q50.33 67.55 50.45 69.37L50.45 69.37Q49.28 70.15 47.73 70.15L47.73 70.15Q46.75 70.15 46.00 69.66Q45.26 69.18 45.13 67.88L45.13 67.88Q44.80 63.13 44.54 58.45Q44.28 53.77 44.05 49.55Q43.82 45.32 43.63 41.78Q43.44 38.23 43.30 35.77L43.30 35.77L43.05 35.77Q42.33 37.59 41.39 39.86Q40.45 42.14 39.18 45.00Q37.91 47.86 36.35 51.46Q34.79 55.07 32.84 59.49ZM89.91 34.60L89.91 34.60Q89.91 35.51 89.36 36.16Q88.81 36.81 88.09 37.13L88.09 37.13Q86.40 35.96 84.13 34.92Q81.85 33.88 78.21 33.88L78.21 33.88Q75.22 33.88 72.69 34.92Q70.15 35.96 68.27 37.98Q66.38 39.99 65.31 43.05Q64.23 46.10 64.23 50.07L64.23 50.07Q64.23 54.10 65.28 57.09Q66.31 60.08 68.17 62.09Q70.02 64.11 72.62 65.11Q75.22 66.12 78.41 66.12L78.41 66.12Q81.78 66.12 84.29 65.18Q86.79 64.23 88.48 62.94L88.48 62.94Q89.13 63.20 89.72 63.88Q90.30 64.56 90.30 65.47L90.30 65.47Q90.30 66.84 88.74 67.94L88.74 67.94Q87.25 68.98 84.65 69.79Q82.05 70.61 78.02 70.61L78.02 70.61Q73.92 70.61 70.41 69.31Q66.90 68.01 64.33 65.44Q61.77 62.87 60.27 59.04Q58.77 55.20 58.77 50.07L58.77 50.07Q58.77 44.93 60.30 41.06Q61.83 37.20 64.43 34.60Q67.03 32.00 70.51 30.70Q73.98 29.40 77.82 29.40L77.82 29.40Q80.48 29.40 82.73 29.85Q84.97 30.31 86.56 31.05Q88.16 31.80 89.03 32.74Q89.91 33.69 89.91 34.60Z"></path></svg>