<svg xmlns="http://www.w3.org/2000/svg" version="1.1" xmlns:xlink="http://www.w3.org/1999/xlink" xmlns:svgjs="http://svgjs.dev/svgjs" width="1000" height="325" viewBox="0 0 1000 325"><g transform="matrix(1,0,0,1,-0.6060567673444552,0.6140635769598646)"><svg viewBox="0 0 396 129" data-background-color="#ffffff" preserveAspectRatio="xMidYMid meet" height="325" width="1000" xmlns="http://www.w3.org/2000/svg" xmlns:xlink="http://www.w3.org/1999/xlink"><g id="tight-bounds" transform="matrix(1,0,0,1,0.2399984798684045,-0.24373600439329834)"><svg viewBox="0 0 395.52 129.48739693491035" height="129.48739693491035" width="395.52"><g><svg viewBox="0 0 620.6263388518914 203.1838821985615" height="129.48739693491035" width="395.52"><g transform="matrix(1,0,0,1,225.1063388518915,73.51235538914234)"><svg viewBox="0 0 395.52 56.159171420276806" height="56.159171420276806" width="395.52"><g id="textblocktransform"><svg viewBox="0 0 395.52 56.159171420276806" height="56.159171420276806" width="395.52" id="textblock"><g><svg viewBox="0 0 395.52 37.14474432526815" height="37.14474432526815" width="395.52"><g transform="matrix(1,0,0,1,0,0)"><svg width="395.52" viewBox="2.200000047683716 -37.349998474121094 400.8699951171875 37.64999771118164" height="37.14474432526815" data-palette-color="#000000"><path d="M9.35 0L2.2 0 6.5-37 13.6-37 22.1-8.65 30.55-37 37.6-37 41.95 0 34.8 0 31.6-27.25 32.75-27.15 25.5 0 18.55 0 11.2-27.15 12.45-27.2 9.35 0ZM52.6 0L45 0 56.6-37 65.95-37 77.55 0 69.85 0 67.5-7.75 54.9-7.75 52.6 0ZM61.2-30.65L56.65-14.4 65.75-14.4 61.2-30.65ZM89 0L81.6 0 81.6-37 96.9-37Q99.1-37 101-36.48 102.9-35.95 104.35-34.65 105.8-33.35 106.62-31.05 107.45-28.75 107.45-25.15L107.45-25.15Q107.45-22.6 106.95-20.8 106.45-19 105.62-17.85 104.8-16.7 103.75-16 102.7-15.3 101.6-14.85L101.6-14.85 108.5 0 100.95 0 95-13.7Q94.4-13.7 93.62-13.73 92.85-13.75 92.05-13.75 91.25-13.75 90.45-13.75 89.65-13.75 89-13.8L89-13.8 89 0ZM89-30.35L89-19.65 95.6-19.65Q96.6-19.65 97.4-19.9 98.2-20.15 98.8-20.78 99.4-21.4 99.72-22.45 100.05-23.5 100.05-25.15L100.05-25.15Q100.05-26.7 99.72-27.73 99.4-28.75 98.8-29.33 98.2-29.9 97.4-30.13 96.6-30.35 95.6-30.35L95.6-30.35 89-30.35ZM126.99 0L119.44 0 110.59-37 118.24-37 124.19-10.9 131.14-37 137.94-37 144.84-10.9 150.79-37 158.44-37 149.59 0 142.04 0 134.54-26.1 126.99 0ZM170.24 0.25L170.24 0.25Q169.04 0.25 167.49 0.03 165.94-0.2 164.52-1 163.09-1.8 162.17-3.43 161.24-5.05 161.24-7.9L161.24-7.9 161.24-28.55Q161.24-31 161.99-32.65 162.74-34.3 163.99-35.25 165.24-36.2 166.74-36.6 168.24-37 169.69-37L169.69-37Q173.44-37 176.32-36.9 179.19-36.8 181.49-36.68 183.79-36.55 185.69-36.35L185.69-36.35 185.69-30.15 171.89-30.15Q170.34-30.15 169.49-29.4 168.64-28.65 168.64-27.1L168.64-27.1 168.64-21.75 183.29-21.35 183.29-15.5 168.64-15.1 168.64-10Q168.64-8.7 169.07-7.98 169.49-7.25 170.22-6.98 170.94-6.7 171.74-6.7L171.74-6.7 185.69-6.7 185.69-0.5Q183.49-0.25 180.82-0.1 178.14 0.05 175.42 0.15 172.69 0.25 170.24 0.25ZM198.79 0L191.34 0 191.34-37 197.29-37 212.79-12.6 212.79-37 220.19-37 220.19 0 214.24 0 198.79-24.4 198.79 0ZM251.63 0.3L251.63 0.3Q248.38 0.3 245.91-0.45 243.43-1.2 241.71-3.2 239.98-5.2 239.11-8.93 238.23-12.65 238.23-18.6L238.23-18.6Q238.23-24.35 239.16-28.03 240.08-31.7 241.83-33.73 243.58-35.75 246.08-36.55 248.58-37.35 251.73-37.35L251.73-37.35Q254.23-37.35 256.41-37.08 258.58-36.8 260.33-36.43 262.08-36.05 263.28-35.6L263.28-35.6 263.28-29.85Q262.38-30.05 260.86-30.25 259.33-30.45 257.38-30.58 255.43-30.7 253.28-30.7L253.28-30.7Q251.18-30.7 249.71-30.23 248.23-29.75 247.36-28.48 246.48-27.2 246.06-24.8 245.63-22.4 245.63-18.55L245.63-18.55Q245.63-14.85 246.01-12.45 246.38-10.05 247.23-8.72 248.08-7.4 249.56-6.88 251.03-6.35 253.28-6.35L253.28-6.35Q257.08-6.35 259.46-6.5 261.83-6.65 263.28-6.85L263.28-6.85 263.28-1.15Q261.93-0.7 260.18-0.38 258.43-0.05 256.33 0.13 254.23 0.3 251.63 0.3ZM275.88 0L268.48 0 268.48-37 275.88-37 275.88-21.6 289.83-21.6 289.83-37 297.28-37 297.28 0 289.83 0 289.83-14.95 275.88-14.95 275.88 0ZM312.63 0.25L312.63 0.25Q311.43 0.25 309.88 0.03 308.33-0.2 306.9-1 305.48-1.8 304.55-3.43 303.63-5.05 303.63-7.9L303.63-7.9 303.63-28.55Q303.63-31 304.38-32.65 305.13-34.3 306.38-35.25 307.63-36.2 309.13-36.6 310.63-37 312.08-37L312.08-37Q315.83-37 318.7-36.9 321.58-36.8 323.88-36.68 326.18-36.55 328.08-36.35L328.08-36.35 328.08-30.15 314.28-30.15Q312.73-30.15 311.88-29.4 311.03-28.65 311.03-27.1L311.03-27.1 311.03-21.75 325.68-21.35 325.68-15.5 311.03-15.1 311.03-10Q311.03-8.7 311.45-7.98 311.88-7.25 312.6-6.98 313.33-6.7 314.13-6.7L314.13-6.7 328.08-6.7 328.08-0.5Q325.88-0.25 323.2-0.1 320.53 0.05 317.8 0.15 315.08 0.25 312.63 0.25ZM340.88 0L333.48 0 333.48-37 348.78-37Q350.98-37 352.88-36.48 354.78-35.95 356.23-34.65 357.68-33.35 358.5-31.05 359.33-28.75 359.33-25.15L359.33-25.15Q359.33-22.6 358.83-20.8 358.33-19 357.5-17.85 356.68-16.7 355.63-16 354.58-15.3 353.48-14.85L353.48-14.85 360.38 0 352.83 0 346.88-13.7Q346.28-13.7 345.5-13.73 344.73-13.75 343.93-13.75 343.13-13.75 342.33-13.75 341.53-13.75 340.88-13.8L340.88-13.8 340.88 0ZM340.88-30.35L340.88-19.65 347.48-19.65Q348.48-19.65 349.28-19.9 350.08-20.15 350.68-20.78 351.28-21.4 351.6-22.45 351.93-23.5 351.93-25.15L351.93-25.15Q351.93-26.7 351.6-27.73 351.28-28.75 350.68-29.33 350.08-29.9 349.28-30.13 348.48-30.35 347.48-30.35L347.48-30.35 340.88-30.35ZM372.22 0L364.82 0 364.82-37 372.22-37 372.22 0ZM386.02 0L378.62 0 378.62-28.55Q378.62-31 379.37-32.65 380.12-34.3 381.37-35.25 382.62-36.2 384.12-36.6 385.62-37 387.07-37L387.07-37Q388.87-37 391.55-36.98 394.22-36.95 397.25-36.8 400.27-36.65 403.07-36.35L403.07-36.35 403.07-30.15 389.12-30.15Q387.57-30.15 386.8-29.33 386.02-28.5 386.02-27.15L386.02-27.15 386.02-20.85 400.67-20.45 400.67-14.6 386.02-14.2 386.02 0Z" opacity="1" transform="matrix(1,0,0,1,0,0)" fill="#000000" class="wordmark-text-0" data-fill-palette-color="primary" id="text-0"></path></svg></g></svg></g><g transform="matrix(1,0,0,1,0,45.91372698660015)"><svg viewBox="0 0 232.209792 10.245444433676656" height="10.245444433676656" width="232.209792"><g transform="matrix(1,0,0,1,0,0)"><svg width="232.209792" viewBox="5.420000076293945 -40.5 1211.159912109375 53.44000244140625" height="10.245444433676656" data-palette-color="#000000"><path d="M5.42 0L5.42-38.16 25.81-38.16Q29.54-38.16 32.31-37.37 35.08-36.57 36.91-35.18 38.75-33.79 39.64-31.87 40.53-29.96 40.53-27.73L40.53-27.73Q40.53-24.1 38.23-21.36L38.23-21.36Q40.87-19.8 42.16-17.31 43.46-14.82 43.46-11.65L43.46-11.65Q43.46-8.98 42.57-6.84 41.67-4.69 39.86-3.16 38.04-1.64 35.27-0.82 32.5 0 28.74 0L28.74 0 5.42 0ZM13.16-23.51L28.78-23.51Q29.79-23.51 30.74-23.44L30.74-23.44Q32.37-25 32.37-27L32.37-27Q32.37-29.08 30.75-30.21 29.13-31.35 26-31.35L26-31.35 13.16-31.35 13.16-23.51ZM13.16-6.74L28.93-6.74Q32.06-6.74 33.68-8.08 35.3-9.42 35.3-11.87L35.3-11.87Q35.3-14.31 33.68-15.67 32.06-17.04 28.93-17.04L28.93-17.04 13.16-17.04 13.16-6.74ZM50.39-13.75L50.39-28.83 57.59-28.83 57.59-14.77Q57.59-12.77 58.03-11.12 58.47-9.47 59.53-8.3 60.59-7.13 62.36-6.48 64.13-5.83 66.77-5.83L66.77-5.83Q68.02-5.83 69.3-6.1 70.58-6.37 71.75-6.85 72.92-7.32 73.94-7.98 74.95-8.64 75.68-9.42L75.68-9.42 75.68-28.83 82.91-28.83 82.91 0 75.68 0 75.68-2.47Q73.02-0.88 70.33-0.2 67.65 0.49 65.23 0.49L65.23 0.49Q61.28 0.49 58.46-0.46 55.64-1.42 53.84-3.23 52.05-5.05 51.22-7.7 50.39-10.35 50.39-13.75L50.39-13.75ZM95.89-32.74L95.89-32.74Q94.82-32.74 93.95-33.04 93.09-33.35 92.48-33.87 91.87-34.4 91.54-35.1 91.21-35.79 91.21-36.57L91.21-36.57Q91.21-37.38 91.54-38.07 91.87-38.77 92.48-39.28 93.09-39.79 93.95-40.1 94.82-40.41 95.89-40.41L95.89-40.41Q96.99-40.41 97.86-40.1 98.73-39.79 99.34-39.28 99.95-38.77 100.28-38.07 100.61-37.38 100.61-36.57L100.61-36.57Q100.61-35.79 100.28-35.1 99.95-34.4 99.34-33.87 98.73-33.35 97.86-33.04 96.99-32.74 95.89-32.74ZM92.28 0L92.28-28.81 99.51-28.81 99.51 0 92.28 0ZM108.95 0L108.95-40.5 116.18-40.5 116.18 0 108.95 0ZM123.21-14.28L123.21-14.28Q123.21-17.72 124.5-20.5 125.8-23.27 128.08-25.23 130.36-27.2 133.5-28.26 136.64-29.32 140.3-29.32L140.3-29.32Q141.86-29.32 143.39-29.13 144.91-28.93 146.32-28.59 147.72-28.25 148.95-27.77 150.19-27.29 151.14-26.73L151.14-26.73 151.14-40.5 158.36-40.5 158.36 0 151.14 0 151.14-2.71Q150.19-2.05 148.89-1.46 147.6-0.88 146.11-0.44 144.62 0 143.02 0.26 141.42 0.51 139.86 0.51L139.86 0.51Q136.2 0.51 133.13-0.56 130.07-1.64 127.87-3.59 125.67-5.54 124.44-8.26 123.21-10.99 123.21-14.28ZM130.8-14.28L130.8-14.28Q130.8-12.55 131.5-11.01 132.19-9.47 133.5-8.31 134.8-7.15 136.65-6.48 138.49-5.81 140.79-5.81L140.79-5.81Q142.25-5.81 143.72-6.09 145.18-6.37 146.54-6.88 147.89-7.4 149.07-8.13 150.26-8.86 151.14-9.77L151.14-9.77 151.14-19.75Q150.04-20.63 148.82-21.24 147.6-21.85 146.33-22.24 145.06-22.63 143.76-22.81 142.47-23 141.25-23L141.25-23Q138.76-23 136.82-22.33 134.88-21.66 133.55-20.48 132.22-19.31 131.51-17.72 130.8-16.14 130.8-14.28ZM171.01-32.74L171.01-32.74Q169.93-32.74 169.07-33.04 168.2-33.35 167.59-33.87 166.98-34.4 166.65-35.1 166.32-35.79 166.32-36.57L166.32-36.57Q166.32-37.38 166.65-38.07 166.98-38.77 167.59-39.28 168.2-39.79 169.07-40.1 169.93-40.41 171.01-40.41L171.01-40.41Q172.11-40.41 172.97-40.1 173.84-39.79 174.45-39.28 175.06-38.77 175.39-38.07 175.72-37.38 175.72-36.57L175.72-36.57Q175.72-35.79 175.39-35.1 175.06-34.4 174.45-33.87 173.84-33.35 172.97-33.04 172.11-32.74 171.01-32.74ZM167.39 0L167.39-28.81 174.62-28.81 174.62 0 167.39 0ZM183.87 0L183.87-28.81 191.1-28.81 191.1-26.37Q193.98-28 196.6-28.66 199.23-29.32 201.74-29.32L201.74-29.32Q205.04-29.32 207.85-28.36 210.65-27.39 212.7-25.49 214.76-23.58 215.92-20.74 217.07-17.9 217.07-14.16L217.07-14.16 217.07 0 209.87 0 209.87-12.99Q209.87-15.36 209.2-17.22 208.53-19.09 207.27-20.37 206.02-21.66 204.22-22.33 202.43-23 200.2-23L200.2-23Q199.03-23 197.8-22.75 196.57-22.51 195.38-22.06 194.2-21.61 193.1-20.94 192-20.26 191.1-19.41L191.1-19.41 191.1 0 183.87 0ZM227.77 10.99L230.45 4.88Q231.82 5.37 233.23 5.7 234.65 6.03 235.98 6.24 237.31 6.45 238.53 6.53 239.75 6.62 240.71 6.62L240.71 6.62Q243.59 6.62 245.72 5.92 247.86 5.22 249.29 4.05 250.71 2.88 251.42 1.33 252.13-0.22 252.13-1.95L252.13-1.95 252.13-3.2Q251.2-2.56 249.96-1.98 248.71-1.39 247.22-0.95 245.73-0.51 244.06-0.24 242.39 0.02 240.61 0.02L240.61 0.02Q237.07 0.02 234.06-1.04 231.06-2.1 228.86-4.02 226.67-5.93 225.43-8.62 224.2-11.3 224.2-14.58L224.2-14.58Q224.2-17.92 225.5-20.64 226.79-23.36 229.07-25.29 231.35-27.22 234.48-28.27 237.6-29.32 241.27-29.32L241.27-29.32Q242.83-29.32 244.37-29.13 245.91-28.93 247.31-28.59 248.71-28.25 249.95-27.77 251.18-27.29 252.13-26.73L252.13-26.73 252.13-28.81 259.36-28.81 259.36-3.3Q259.36 0.63 258.16 3.66 256.96 6.69 254.66 8.75 252.35 10.82 248.93 11.88 245.51 12.94 241.1 12.94L241.1 12.94Q239.51 12.94 237.8 12.81 236.09 12.67 234.37 12.41 232.65 12.16 230.98 11.8 229.3 11.45 227.77 10.99L227.77 10.99ZM231.79-14.65L231.79-14.65Q231.79-12.92 232.49-11.39 233.19-9.86 234.48-8.73 235.77-7.59 237.6-6.95 239.44-6.3 241.73-6.3L241.73-6.3Q243.22-6.3 244.7-6.58 246.17-6.86 247.53-7.37 248.88-7.89 250.07-8.62 251.25-9.35 252.13-10.25L252.13-10.25 252.13-19.75Q251.03-20.63 249.81-21.24 248.59-21.85 247.32-22.24 246.05-22.63 244.76-22.81 243.46-23 242.24-23L242.24-23Q239.75-23 237.81-22.34 235.87-21.68 234.54-20.54 233.21-19.41 232.5-17.9 231.79-16.38 231.79-14.65ZM288.53 0L288.53-23.39 281.57-23.39 281.57-28.81 288.53-28.81 288.53-37.77 295.75-37.77 295.75-28.81 302.71-28.81 302.71-23.39 295.75-23.39 295.75 0 288.53 0ZM309.13 0L309.13-40.48 316.36-40.48 316.36-26.61Q318.63-27.86 321.42-28.59 324.22-29.32 327.29-29.32L327.29-29.32Q330.86-29.32 333.7-28.27 336.55-27.22 338.52-25.26 340.5-23.29 341.56-20.48 342.63-17.68 342.63-14.16L342.63-14.16 342.63 0 335.42 0 335.42-13.87Q335.42-15.92 334.77-17.61 334.11-19.31 332.84-20.53 331.57-21.75 329.75-22.42 327.93-23.1 325.63-23.1L325.63-23.1Q322.88-23.1 320.51-22.22 318.14-21.34 316.36-20L316.36-20 316.36 0 309.13 0ZM349.34-14.5L349.34-14.5Q349.34-17.43 350.53-20.1 351.73-22.78 353.98-24.83 356.22-26.88 359.48-28.1 362.74-29.32 366.89-29.32L366.89-29.32Q371.02-29.32 374.33-28.09 377.63-26.86 379.94-24.71 382.25-22.56 383.48-19.65 384.71-16.75 384.71-13.43L384.71-13.43Q384.71-13.01 384.7-12.54 384.69-12.06 384.64-11.67L384.64-11.67 357.39-11.67Q357.86-10.38 358.9-9.3 359.93-8.23 361.5-7.45 363.06-6.67 365.11-6.24 367.16-5.81 369.65-5.81L369.65-5.81Q372.14-5.81 374.61-6.34 377.07-6.86 379.32-7.67L379.32-7.67 381.76-2.15Q380.34-1.49 378.89-0.99 377.44-0.49 375.86-0.16 374.29 0.17 372.57 0.34 370.85 0.51 368.94 0.51L368.94 0.51Q364.08 0.51 360.42-0.66 356.76-1.83 354.29-3.86 351.83-5.88 350.58-8.62 349.34-11.35 349.34-14.5ZM357.39-17.31L377.05-17.31Q376.66-18.51 375.84-19.54 375.02-20.58 373.8-21.35 372.58-22.12 370.97-22.56 369.36-23 367.43-23L367.43-23Q365.38-23 363.69-22.53 362.01-22.07 360.74-21.29 359.47-20.51 358.63-19.48 357.79-18.46 357.39-17.31L357.39-17.31ZM421.89 0L405.05-38.16 413.49-38.16 423.84-13.53 426.24-7.57 428.12-13.53 431.93-22.51 425.07-38.16 433.02-38.16 435.83-30.71 438.44-38.16 446.4-38.16 439.54-22.51 443.42-13.33 445.77-7.57 447.57-13.43 457.98-38.16 466.42-38.16 449.58 0 441.91 0 438.52-7.57 435.76-14.92 433-7.57 429.56 0 421.89 0ZM470.06-14.5L470.06-14.5Q470.06-17.43 471.25-20.1 472.45-22.78 474.7-24.83 476.94-26.88 480.2-28.1 483.46-29.32 487.61-29.32L487.61-29.32Q491.74-29.32 495.05-28.09 498.35-26.86 500.66-24.71 502.97-22.56 504.2-19.65 505.43-16.75 505.43-13.43L505.43-13.43Q505.43-13.01 505.42-12.54 505.41-12.06 505.36-11.67L505.36-11.67 478.11-11.67Q478.58-10.38 479.62-9.3 480.65-8.23 482.22-7.45 483.78-6.67 485.83-6.24 487.88-5.81 490.37-5.81L490.37-5.81Q492.86-5.81 495.33-6.34 497.79-6.86 500.04-7.67L500.04-7.67 502.48-2.15Q501.06-1.49 499.61-0.99 498.16-0.49 496.58-0.16 495.01 0.17 493.29 0.34 491.57 0.51 489.66 0.51L489.66 0.51Q484.8 0.51 481.14-0.66 477.48-1.83 475.01-3.86 472.55-5.88 471.3-8.62 470.06-11.35 470.06-14.5ZM478.11-17.31L497.77-17.31Q497.38-18.51 496.56-19.54 495.74-20.58 494.52-21.35 493.3-22.12 491.69-22.56 490.08-23 488.15-23L488.15-23Q486.1-23 484.41-22.53 482.73-22.07 481.46-21.29 480.19-20.51 479.35-19.48 478.51-18.46 478.11-17.31L478.11-17.31ZM513 0L513-40.5 520.23-40.5 520.23-26.1Q521.18-26.76 522.47-27.34 523.77-27.93 525.26-28.37 526.74-28.81 528.33-29.06 529.92-29.32 531.51-29.32L531.51-29.32Q535.17-29.32 538.23-28.25 541.3-27.17 543.49-25.22 545.69-23.27 546.92-20.54 548.16-17.82 548.16-14.53L548.16-14.53Q548.16-11.08 546.86-8.31 545.57-5.54 543.29-3.58 541-1.61 537.87-0.55 534.73 0.51 531.07 0.51L531.07 0.51Q529.5 0.51 527.98 0.32 526.45 0.12 525.05-0.22 523.64-0.56 522.41-1.04 521.18-1.51 520.23-2.08L520.23-2.08 520.23 0 513 0ZM520.23-19.04L520.23-9.06Q521.32-8.18 522.55-7.57 523.77-6.96 525.04-6.57 526.31-6.18 527.6-5.99 528.89-5.81 530.11-5.81L530.11-5.81Q532.6-5.81 534.55-6.48 536.49-7.15 537.82-8.33 539.15-9.5 539.86-11.08 540.56-12.67 540.56-14.53L540.56-14.53Q540.56-16.26 539.87-17.8 539.17-19.34 537.87-20.5 536.56-21.66 534.72-22.33 532.87-23 530.58-23L530.58-23Q529.11-23 527.65-22.72 526.18-22.44 524.83-21.92 523.47-21.41 522.29-20.68 521.11-19.95 520.23-19.04L520.23-19.04ZM554.99-4.25L554.99-4.25Q554.99-5.22 555.4-6.08 555.82-6.93 556.56-7.58 557.31-8.23 558.37-8.59 559.43-8.96 560.75-8.96L560.75-8.96Q562.17-8.96 563.35-8.51 564.54-8.06 565.39-7.2 566.24-6.35 566.72-5.11 567.2-3.88 567.2-2.34L567.2-2.34Q567.2 1.12 564.82 4.31 562.44 7.5 557.89 9.96L557.89 9.96 554.96 5.81Q556.16 5.18 557.06 4.55 557.97 3.93 558.65 3.3 559.34 2.66 559.84 1.98 560.34 1.29 560.73 0.51L560.73 0.51Q559.43 0.51 558.37 0.13 557.31-0.24 556.55-0.88 555.79-1.51 555.39-2.38 554.99-3.25 554.99-4.25ZM591.04-19.19L591.04-19.19Q591.04-23.51 592.63-27.1 594.22-30.69 597.09-33.26 599.95-35.84 603.97-37.26 607.99-38.67 612.87-38.67L612.87-38.67Q617.73-38.67 621.76-37.26 625.79-35.84 628.65-33.26 631.52-30.69 633.11-27.1 634.7-23.51 634.7-19.19L634.7-19.19Q634.7-14.84 633.11-11.22 631.52-7.59 628.65-4.98 625.79-2.37 621.76-0.92 617.73 0.54 612.87 0.54L612.87 0.54Q607.99 0.54 603.97-0.92 599.95-2.37 597.09-4.98 594.22-7.59 592.63-11.22 591.04-14.84 591.04-19.19ZM598.78-19.19L598.78-19.19Q598.78-16.24 599.85-13.87 600.91-11.5 602.8-9.83 604.69-8.15 607.27-7.25 609.84-6.35 612.87-6.35L612.87-6.35Q615.9-6.35 618.47-7.25 621.05-8.15 622.93-9.83 624.81-11.5 625.88-13.87 626.96-16.24 626.96-19.19L626.96-19.19Q626.96-22.14 625.88-24.49 624.81-26.83 622.93-28.45 621.05-30.08 618.47-30.93 615.9-31.79 612.87-31.79L612.87-31.79Q609.84-31.79 607.27-30.93 604.69-30.08 602.8-28.45 600.91-26.83 599.85-24.49 598.78-22.14 598.78-19.19ZM642.38 0L642.38-28.81 649.61-28.81 649.61-26.37Q652.49-28 655.12-28.66 657.74-29.32 660.26-29.32L660.26-29.32Q663.55-29.32 666.36-28.36 669.17-27.39 671.22-25.49 673.27-23.58 674.43-20.74 675.59-17.9 675.59-14.16L675.59-14.16 675.59 0 668.39 0 668.39-12.99Q668.39-15.36 667.71-17.22 667.04-19.09 665.79-20.37 664.53-21.66 662.73-22.33 660.94-23 658.72-23L658.72-23Q657.55-23 656.31-22.75 655.08-22.51 653.9-22.06 652.71-21.61 651.61-20.94 650.51-20.26 649.61-19.41L649.61-19.41 649.61 0 642.38 0ZM683.08-14.5L683.08-14.5Q683.08-17.43 684.28-20.1 685.47-22.78 687.72-24.83 689.96-26.88 693.22-28.1 696.48-29.32 700.63-29.32L700.63-29.32Q704.76-29.32 708.07-28.09 711.38-26.86 713.68-24.71 715.99-22.56 717.22-19.65 718.46-16.75 718.46-13.43L718.46-13.43Q718.46-13.01 718.44-12.54 718.43-12.06 718.38-11.67L718.38-11.67 691.14-11.67Q691.6-10.38 692.64-9.3 693.68-8.23 695.24-7.45 696.8-6.67 698.85-6.24 700.9-5.81 703.39-5.81L703.39-5.81Q705.88-5.81 708.35-6.34 710.81-6.86 713.06-7.67L713.06-7.67 715.5-2.15Q714.09-1.49 712.63-0.99 711.18-0.49 709.61-0.16 708.03 0.17 706.31 0.34 704.59 0.51 702.68 0.51L702.68 0.51Q697.83 0.51 694.16-0.66 690.5-1.83 688.04-3.86 685.57-5.88 684.32-8.62 683.08-11.35 683.08-14.5ZM691.14-17.31L710.79-17.31Q710.4-18.51 709.58-19.54 708.76-20.58 707.54-21.35 706.32-22.12 704.71-22.56 703.1-23 701.17-23L701.17-23Q699.12-23 697.44-22.53 695.75-22.07 694.48-21.29 693.21-20.51 692.37-19.48 691.53-18.46 691.14-17.31L691.14-17.31ZM743.72 0L743.72-38.16 751.46-38.16 751.46-6.79 773.65-6.79 773.65 0 743.72 0ZM784.05-32.74L784.05-32.74Q782.97-32.74 782.11-33.04 781.24-33.35 780.63-33.87 780.02-34.4 779.69-35.1 779.36-35.79 779.36-36.57L779.36-36.57Q779.36-37.38 779.69-38.07 780.02-38.77 780.63-39.28 781.24-39.79 782.11-40.1 782.97-40.41 784.05-40.41L784.05-40.41Q785.15-40.41 786.01-40.1 786.88-39.79 787.49-39.28 788.1-38.77 788.43-38.07 788.76-37.38 788.76-36.57L788.76-36.57Q788.76-35.79 788.43-35.1 788.1-34.4 787.49-33.87 786.88-33.35 786.01-33.04 785.15-32.74 784.05-32.74ZM780.44 0L780.44-28.81 787.66-28.81 787.66 0 780.44 0ZM796.91 0L796.91-28.81 804.14-28.81 804.14-26.37Q807.02-28 809.64-28.66 812.27-29.32 814.78-29.32L814.78-29.32Q818.08-29.32 820.89-28.36 823.69-27.39 825.75-25.49 827.8-23.58 828.96-20.74 830.12-17.9 830.12-14.16L830.12-14.16 830.12 0 822.91 0 822.91-12.99Q822.91-15.36 822.24-17.22 821.57-19.09 820.31-20.37 819.06-21.66 817.26-22.33 815.47-23 813.25-23L813.25-23Q812.07-23 810.84-22.75 809.61-22.51 808.42-22.06 807.24-21.61 806.14-20.94 805.04-20.26 804.14-19.41L804.14-19.41 804.14 0 796.91 0ZM837.61-14.5L837.61-14.5Q837.61-17.43 838.8-20.1 840-22.78 842.25-24.83 844.49-26.88 847.75-28.1 851.01-29.32 855.16-29.32L855.16-29.32Q859.29-29.32 862.6-28.09 865.9-26.86 868.21-24.71 870.52-22.56 871.75-19.65 872.98-16.75 872.98-13.43L872.98-13.43Q872.98-13.01 872.97-12.54 872.96-12.06 872.91-11.67L872.91-11.67 845.67-11.67Q846.13-10.38 847.17-9.3 848.2-8.23 849.77-7.45 851.33-6.67 853.38-6.24 855.43-5.81 857.92-5.81L857.92-5.81Q860.41-5.81 862.88-6.34 865.34-6.86 867.59-7.67L867.59-7.67 870.03-2.15Q868.61-1.49 867.16-0.99 865.71-0.49 864.13-0.16 862.56 0.17 860.84 0.34 859.12 0.51 857.21 0.51L857.21 0.51Q852.35 0.51 848.69-0.66 845.03-1.83 842.56-3.86 840.1-5.88 838.85-8.62 837.61-11.35 837.61-14.5ZM845.67-17.31L865.32-17.31Q864.93-18.51 864.11-19.54 863.29-20.58 862.07-21.35 860.85-22.12 859.24-22.56 857.63-23 855.7-23L855.7-23Q853.65-23 851.96-22.53 850.28-22.07 849.01-21.29 847.74-20.51 846.9-19.48 846.06-18.46 845.67-17.31L845.67-17.31ZM895.98-9.08L895.98-9.08Q895.98-11.16 896.88-12.87 897.78-14.58 899.59-15.81 901.4-17.04 904.1-17.71 906.79-18.38 910.38-18.38L910.38-18.38Q913.04-18.38 915.98-17.99 918.93-17.6 922.05-16.8L922.05-16.8Q921.93-18.16 921.22-19.32 920.51-20.48 919.26-21.33 918-22.17 916.23-22.63 914.46-23.1 912.21-23.1L912.21-23.1Q910.99-23.1 909.53-22.95 908.06-22.8 906.5-22.51 904.94-22.22 903.41-21.78 901.89-21.34 900.57-20.73L900.57-20.73 898.37-26.66Q900.01-27.25 901.87-27.73 903.74-28.22 905.69-28.58 907.65-28.93 909.6-29.13 911.55-29.32 913.38-29.32L913.38-29.32Q921.47-29.32 925.4-25.2 929.33-21.07 929.33-12.55L929.33-12.55 929.33 0 922.1 0 922.1-2.71Q920.98-2.05 919.65-1.46 918.32-0.88 916.75-0.44 915.19 0 913.4 0.26 911.6 0.51 909.6 0.51L909.6 0.51Q906.23 0.51 903.68-0.22 901.13-0.95 899.42-2.25 897.71-3.54 896.84-5.29 895.98-7.03 895.98-9.08ZM903.59-9.33L903.59-9.33Q903.59-8.62 903.96-7.97 904.33-7.32 905.13-6.82 905.94-6.32 907.2-6.02 908.45-5.71 910.24-5.71L910.24-5.71Q912.14-5.71 913.92-6.05 915.7-6.4 917.24-6.96 918.78-7.52 920.03-8.25 921.27-8.98 922.1-9.77L922.1-9.77 922.1-11.04Q920.44-11.5 918.82-11.82 917.19-12.13 915.72-12.32 914.24-12.5 912.93-12.57 911.63-12.65 910.65-12.65L910.65-12.65Q908.62-12.65 907.28-12.38 905.94-12.11 905.11-11.66 904.28-11.21 903.94-10.6 903.59-9.99 903.59-9.33ZM943.22 0L943.22-23.39 936.26-23.39 936.26-28.81 943.22-28.81 943.22-37.77 950.44-37.77 950.44-28.81 957.4-28.81 957.4-23.39 950.44-23.39 950.44 0 943.22 0ZM979.05-9.08L979.05-9.08Q979.05-11.16 979.95-12.87 980.86-14.58 982.66-15.81 984.47-17.04 987.17-17.71 989.87-18.38 993.46-18.38L993.46-18.38Q996.12-18.38 999.06-17.99 1002-17.6 1005.13-16.8L1005.13-16.8Q1005-18.16 1004.3-19.32 1003.59-20.48 1002.33-21.33 1001.07-22.17 999.3-22.63 997.53-23.1 995.29-23.1L995.29-23.1Q994.07-23.1 992.6-22.95 991.14-22.8 989.57-22.51 988.01-22.22 986.49-21.78 984.96-21.34 983.64-20.73L983.64-20.73 981.44-26.66Q983.08-27.25 984.95-27.73 986.81-28.22 988.77-28.58 990.72-28.93 992.67-29.13 994.63-29.32 996.46-29.32L996.46-29.32Q1004.54-29.32 1008.47-25.2 1012.4-21.07 1012.4-12.55L1012.4-12.55 1012.4 0 1005.17 0 1005.17-2.71Q1004.05-2.05 1002.72-1.46 1001.39-0.88 999.83-0.44 998.26 0 996.47 0.26 994.68 0.51 992.67 0.51L992.67 0.51Q989.3 0.51 986.75-0.22 984.2-0.95 982.49-2.25 980.78-3.54 979.92-5.29 979.05-7.03 979.05-9.08ZM986.67-9.33L986.67-9.33Q986.67-8.62 987.03-7.97 987.4-7.32 988.21-6.82 989.01-6.32 990.27-6.02 991.53-5.71 993.31-5.71L993.31-5.71Q995.21-5.71 997-6.05 998.78-6.4 1000.32-6.96 1001.85-7.52 1003.1-8.25 1004.34-8.98 1005.17-9.77L1005.17-9.77 1005.17-11.04Q1003.51-11.5 1001.89-11.82 1000.27-12.13 998.79-12.32 997.31-12.5 996.01-12.57 994.7-12.65 993.72-12.65L993.72-12.65Q991.7-12.65 990.35-12.38 989.01-12.11 988.18-11.66 987.35-11.21 987.01-10.6 986.67-9.99 986.67-9.33ZM1050.95 0L1050.95-31.37 1036.86-31.37 1036.86-38.16 1072.77-38.16 1072.77-31.37 1058.68-31.37 1058.68 0 1050.95 0ZM1083.93-32.74L1083.93-32.74Q1082.85-32.74 1081.99-33.04 1081.12-33.35 1080.51-33.87 1079.9-34.4 1079.57-35.1 1079.24-35.79 1079.24-36.57L1079.24-36.57Q1079.24-37.38 1079.57-38.07 1079.9-38.77 1080.51-39.28 1081.12-39.79 1081.99-40.1 1082.85-40.41 1083.93-40.41L1083.93-40.41Q1085.02-40.41 1085.89-40.1 1086.76-39.79 1087.37-39.28 1087.98-38.77 1088.31-38.07 1088.64-37.38 1088.64-36.57L1088.64-36.57Q1088.64-35.79 1088.31-35.1 1087.98-34.4 1087.37-33.87 1086.76-33.35 1085.89-33.04 1085.02-32.74 1083.93-32.74ZM1080.31 0L1080.31-28.81 1087.54-28.81 1087.54 0 1080.31 0ZM1096.99 0L1096.99-28.81 1104.21-28.81 1104.21-26.37Q1106.92-28.03 1109.5-28.67 1112.07-29.32 1114.54-29.32L1114.54-29.32Q1117.98-29.32 1120.86-28.22 1123.74-27.12 1125.79-24.9L1125.79-24.9Q1127.38-26.12 1128.92-26.97 1130.46-27.81 1132-28.33 1133.53-28.86 1135.12-29.09 1136.71-29.32 1138.39-29.32L1138.39-29.32Q1141.93-29.32 1144.81-28.36 1147.69-27.39 1149.73-25.49 1151.77-23.58 1152.88-20.74 1153.99-17.9 1153.99-14.16L1153.99-14.16 1153.99 0 1146.79 0 1146.79-12.99Q1146.79-15.36 1146.12-17.22 1145.45-19.09 1144.24-20.37 1143.03-21.66 1141.36-22.33 1139.69-23 1137.68-23L1137.68-23Q1136.58-23 1135.44-22.79 1134.29-22.58 1133.2-22.14 1132.12-21.7 1131.16-21.03 1130.21-20.36 1129.5-19.46L1129.5-19.46 1129.5 0 1122.3 0 1122.3-12.99Q1122.3-15.36 1121.63-17.22 1120.96-19.09 1119.75-20.37 1118.54-21.66 1116.85-22.33 1115.15-23 1113.12-23L1113.12-23Q1111.88-23 1110.62-22.74 1109.36-22.49 1108.2-22.02 1107.04-21.56 1106.03-20.9 1105.02-20.24 1104.21-19.41L1104.21-19.41 1104.21 0 1096.99 0ZM1161.7-14.5L1161.7-14.5Q1161.7-17.43 1162.9-20.1 1164.1-22.78 1166.34-24.83 1168.59-26.88 1171.85-28.1 1175.11-29.32 1179.26-29.32L1179.26-29.32Q1183.38-29.32 1186.69-28.09 1190-26.86 1192.31-24.71 1194.61-22.56 1195.85-19.65 1197.08-16.75 1197.08-13.43L1197.08-13.43Q1197.08-13.01 1197.07-12.54 1197.06-12.06 1197.01-11.67L1197.01-11.67 1169.76-11.67Q1170.22-10.38 1171.26-9.3 1172.3-8.23 1173.86-7.45 1175.43-6.67 1177.48-6.24 1179.53-5.81 1182.02-5.81L1182.02-5.81Q1184.51-5.81 1186.97-6.34 1189.44-6.86 1191.68-7.67L1191.68-7.67 1194.13-2.15Q1192.71-1.49 1191.26-0.99 1189.81-0.49 1188.23-0.16 1186.66 0.17 1184.93 0.34 1183.21 0.51 1181.31 0.51L1181.31 0.51Q1176.45 0.51 1172.79-0.66 1169.13-1.83 1166.66-3.86 1164.19-5.88 1162.95-8.62 1161.7-11.35 1161.7-14.5ZM1169.76-17.31L1189.41-17.31Q1189.02-18.51 1188.21-19.54 1187.39-20.58 1186.17-21.35 1184.95-22.12 1183.34-22.56 1181.72-23 1179.8-23L1179.8-23Q1177.74-23 1176.06-22.53 1174.38-22.07 1173.11-21.29 1171.84-20.51 1170.99-19.48 1170.15-18.46 1169.76-17.31L1169.76-17.31ZM1204.99-4.22L1204.99-4.22Q1204.99-5.2 1205.39-6.07 1205.79-6.93 1206.55-7.58 1207.31-8.23 1208.38-8.59 1209.46-8.96 1210.8-8.96L1210.8-8.96Q1212.14-8.96 1213.22-8.59 1214.29-8.23 1215.03-7.58 1215.78-6.93 1216.18-6.07 1216.58-5.2 1216.58-4.22L1216.58-4.22Q1216.58-3.25 1216.18-2.38 1215.78-1.51 1215.03-0.88 1214.29-0.24 1213.22 0.13 1212.14 0.51 1210.8 0.51L1210.8 0.51Q1209.46 0.51 1208.38 0.13 1207.31-0.24 1206.55-0.88 1205.79-1.51 1205.39-2.38 1204.99-3.25 1204.99-4.22Z" opacity="1" transform="matrix(1,0,0,1,0,0)" fill="#000000" class="slogan-text-1" data-fill-palette-color="secondary" id="text-1"></path></svg></g></svg></g></svg></g></svg></g><g><svg viewBox="0 0 203.1838821985615 203.1838821985615" height="203.1838821985615" width="203.1838821985615"><g><svg viewBox="0 0 203.1838821985615 203.1838821985615" height="203.1838821985615" width="203.1838821985615"><g transform="matrix(1,0,0,1,61.4409842736102,53.70104078914359)"><svg viewBox="0 0 80.3019136513411 95.78180062027431" height="95.78180062027431" width="80.3019136513411"><g><svg xmlns="http://www.w3.org/2000/svg" xmlns:xlink="http://www.w3.org/1999/xlink" version="1.1" x="0" y="0" viewBox="90 58 332 396" enable-background="new 0 0 512 512" xml:space="preserve" height="95.78180062027431" width="80.3019136513411" class="icon-s-0" data-fill-palette-color="accent" id="s-0"><g fill="#000000" data-fill-palette-color="accent"><g fill="#000000" data-fill-palette-color="accent"><polygon points="186.634,189.317 153.292,256 186.634,322.683 197.366,317.317 166.708,256 197.366,194.683   " fill="#000000" data-fill-palette-color="accent"></polygon><polygon points="314.634,194.683 345.292,256 314.634,317.317 325.366,322.683 358.708,256 325.366,189.317   " fill="#000000" data-fill-palette-color="accent"></polygon><rect x="250" y="158.676" transform="matrix(-0.9864 -0.1644 0.1644 -0.9864 466.4307 550.603)" width="11.999" height="194.648" fill="#000000" data-fill-palette-color="accent"></rect><path d="M354.485 58H90v396h332V125.515L354.485 58zM358 78.485L401.515 122H358V78.485zM102 442V70h244v64h64v308H102z" fill="#000000" data-fill-palette-color="accent"></path></g></g></svg></g></svg></g><g><path d="M18.56 77.812l-1.078 2.934-14.536-7.347 1.068-2.906 12.918 0.781-10.359-7.742 1.064-2.897 15.84 3.796-1.078 2.934-11.669-2.793 0.212-0.463 10.053 7.078-1.048 2.85-12.257-1.079 0.171-0.521z" fill="#000000" data-fill-palette-color="accent"></path><path d="M28.048 57.001l-1.884 2.74-10.454-13.349 2.318-3.371 16.201 4.989-1.906 2.773-3.37-1.073-3.125 4.545zM19.13 46.303l4.729 5.668 2.256-3.281z" fill="#000000" data-fill-palette-color="accent"></path><path d="M40.702 41.285l-2.343 2.231-11.157-11.714 4.844-4.614c0.461-0.439 0.947-0.796 1.456-1.07 0.504-0.269 1.04-0.414 1.609-0.433 0.568-0.019 1.17 0.132 1.806 0.453 0.635 0.321 1.315 0.861 2.037 1.62v0c0.513 0.538 0.897 1.048 1.153 1.528 0.256 0.48 0.414 0.925 0.475 1.335 0.056 0.405 0.044 0.787-0.035 1.147-0.079 0.36-0.191 0.7-0.335 1.02v0l6.661 2.62-2.386 2.272-6.022-2.541c-0.125 0.119-0.271 0.254-0.44 0.405-0.168 0.151-0.336 0.306-0.504 0.467-0.168 0.16-0.339 0.323-0.512 0.487-0.168 0.16-0.324 0.3-0.468 0.418v0zM31.55 31.675l3.227 3.389 2.09-1.992c0.211-0.201 0.376-0.409 0.494-0.621 0.118-0.213 0.175-0.446 0.172-0.7 0.006-0.253-0.062-0.523-0.205-0.808-0.143-0.285-0.382-0.603-0.717-0.954v0c-0.311-0.327-0.604-0.566-0.876-0.718-0.273-0.152-0.532-0.227-0.777-0.224-0.244-0.006-0.471 0.05-0.68 0.167-0.214 0.112-0.427 0.269-0.638 0.47v0z" fill="#000000" data-fill-palette-color="accent"></path><path d="M57.19 29.031l-2.893 1.599-11.213-12.287 2.928-1.618 7.8 8.725-2.859-11.455 2.605-1.439 8.157 8.527-3.242-11.242 2.927-1.618 4.443 16.028-2.893 1.598-8.389-8.411z" fill="#000000" data-fill-palette-color="accent"></path><path d="M78.157 19.731v0c-0.339 0.095-0.734 0.171-1.187 0.229-0.452 0.058-0.911 0.031-1.376-0.08-0.459-0.113-0.883-0.359-1.272-0.74-0.384-0.389-0.688-0.982-0.912-1.782v0l-2.434-8.695c-0.193-0.69-0.249-1.295-0.166-1.814 0.074-0.524 0.249-0.969 0.525-1.336 0.278-0.36 0.612-0.657 1.002-0.89 0.391-0.227 0.792-0.397 1.201-0.512v0c1.055-0.295 1.988-0.543 2.8-0.742 0.812-0.2 1.547-0.371 2.203-0.513 0.654-0.149 1.258-0.269 1.811-0.363v0l0.73 2.608-5.819 1.629c-0.435 0.122-0.741 0.321-0.918 0.598-0.177 0.277-0.205 0.633-0.084 1.067v0l0.63 2.253 6.213-1.552 0.69 2.463-6.116 1.898 0.601 2.148c0.102 0.364 0.239 0.633 0.411 0.805 0.177 0.164 0.379 0.259 0.607 0.284 0.226 0.019 0.451-0.002 0.674-0.064v0l5.877-1.645 0.73 2.608c-0.6 0.244-1.268 0.493-2.003 0.746-0.743 0.249-1.494 0.497-2.252 0.744-0.753 0.238-1.475 0.454-2.166 0.648z" fill="#000000" data-fill-palette-color="accent"></path><path d="M94.623 16.73l-3.249 0.203-1.01-16.145 2.593-0.163 7.432 10.218-0.666-10.641 3.229-0.202 1.011 16.146-2.594 0.162-7.412-10.229z" fill="#000000" data-fill-palette-color="accent"></path><path d="M126.43 20.154v0c-0.914-0.257-1.689-0.588-2.326-0.995-0.637-0.407-1.116-0.958-1.438-1.655-0.329-0.692-0.471-1.597-0.426-2.716 0.052-1.116 0.312-2.508 0.781-4.175v0c0.454-1.616 0.954-2.903 1.498-3.86 0.553-0.961 1.155-1.657 1.807-2.088 0.652-0.43 1.361-0.659 2.126-0.685 0.766-0.026 1.589 0.085 2.472 0.333v0c0.703 0.198 1.347 0.42 1.932 0.667 0.592 0.249 1.118 0.497 1.58 0.744 0.463 0.24 0.843 0.471 1.139 0.693v0l-0.681 2.424c-0.233-0.128-0.555-0.28-0.968-0.458-0.412-0.178-0.888-0.36-1.428-0.546-0.539-0.193-1.108-0.374-1.709-0.542v0c-0.588-0.165-1.108-0.239-1.562-0.222-0.453 0.017-0.851 0.171-1.194 0.461-0.35 0.288-0.676 0.751-0.98 1.389-0.312 0.643-0.619 1.505-0.923 2.584v0c-0.293 1.041-0.482 1.912-0.568 2.612-0.08 0.701-0.055 1.274 0.075 1.717 0.139 0.439 0.392 0.789 0.76 1.051 0.374 0.264 0.877 0.484 1.51 0.662v0c1.067 0.3 1.939 0.521 2.616 0.663 0.682 0.15 1.232 0.253 1.65 0.309v0l-0.673 2.396c-0.413 0.022-0.879 0.012-1.398-0.031-0.517-0.049-1.076-0.133-1.676-0.254-0.602-0.114-1.267-0.274-1.996-0.478z" fill="#000000" data-fill-palette-color="accent"></path><path d="M140.306 25.538l-2.87-1.495 7.477-14.346 2.869 1.496-3.11 5.967 5.412 2.821 3.11-5.968 2.887 1.504-7.477 14.346-2.887-1.504 3.023-5.8-5.412-2.821z" fill="#000000" data-fill-palette-color="accent"></path><path d="M157.246 36.669v0c-0.27-0.225-0.557-0.508-0.861-0.848-0.304-0.34-0.542-0.733-0.715-1.179-0.167-0.442-0.205-0.931-0.112-1.468 0.102-0.537 0.419-1.124 0.95-1.761v0l5.782-6.935c0.459-0.551 0.926-0.939 1.4-1.166 0.473-0.236 0.939-0.344 1.398-0.325 0.455 0.025 0.888 0.131 1.301 0.32 0.409 0.194 0.776 0.427 1.103 0.699v0c0.841 0.701 1.574 1.33 2.199 1.885 0.625 0.556 1.183 1.064 1.672 1.524 0.494 0.455 0.935 0.884 1.326 1.286v0l-1.734 2.08-4.642-3.869c-0.347-0.289-0.684-0.428-1.013-0.417-0.329 0.011-0.638 0.19-0.927 0.536v0l-1.498 1.797 4.802 4.237-1.638 1.965-5.032-3.961-1.427 1.712c-0.242 0.291-0.385 0.556-0.43 0.796-0.035 0.239 0.002 0.459 0.109 0.661 0.112 0.197 0.257 0.37 0.436 0.519v0l4.688 3.908-1.734 2.08c-0.541-0.356-1.125-0.765-1.752-1.227-0.627-0.471-1.257-0.949-1.89-1.433-0.624-0.485-1.211-0.957-1.761-1.416z" fill="#000000" data-fill-palette-color="accent"></path><path d="M169.007 48.435l-2.008-2.536 12.681-10.044 4.153 5.244c0.396 0.499 0.707 1.015 0.934 1.547 0.222 0.527 0.317 1.074 0.284 1.641-0.033 0.568-0.238 1.154-0.615 1.757-0.377 0.604-0.977 1.231-1.799 1.882v0c-0.583 0.462-1.125 0.798-1.626 1.009-0.502 0.211-0.959 0.328-1.373 0.351-0.408 0.019-0.788-0.028-1.139-0.139-0.351-0.112-0.679-0.254-0.985-0.426v0l-3.215 6.394-2.046-2.583 3.078-5.765c-0.107-0.135-0.228-0.293-0.363-0.475-0.135-0.181-0.274-0.363-0.419-0.544-0.144-0.182-0.291-0.367-0.439-0.555-0.144-0.182-0.269-0.35-0.373-0.503v0zM179.41 40.196l-3.668 2.905 1.793 2.263c0.181 0.229 0.373 0.412 0.574 0.549 0.201 0.137 0.429 0.215 0.681 0.234 0.252 0.029 0.526-0.015 0.823-0.131 0.297-0.117 0.635-0.326 1.016-0.626v0c0.354-0.28 0.619-0.549 0.795-0.808 0.176-0.258 0.274-0.509 0.293-0.753 0.028-0.242-0.007-0.473-0.104-0.692-0.092-0.223-0.229-0.449-0.411-0.678v0z" fill="#000000" data-fill-palette-color="accent"></path><path d="M179.186 63.611l-1.576-2.826 14.129-7.879 1.576 2.825z" fill="#000000" data-fill-palette-color="accent"></path><path d="M183.276 73.409l-1.091-3.046 11.751-4.213c0.675-0.242 1.274-0.34 1.798-0.295 0.528 0.036 0.984 0.179 1.37 0.429 0.379 0.252 0.699 0.564 0.959 0.936 0.254 0.374 0.453 0.761 0.596 1.161v0c0.177 0.494 0.393 1.107 0.649 1.84 0.258 0.739 0.517 1.531 0.778 2.376 0.254 0.847 0.478 1.669 0.673 2.466v0l-2.549 0.914-2.06-5.745c-0.152-0.425-0.382-0.702-0.689-0.832-0.301-0.132-0.636-0.132-1.005 0.001v0l-2.596 0.93 1.992 6.087-2.409 0.863-2.319-5.969z" fill="#000000" data-fill-palette-color="accent"></path><path d="M7.504 133.856l-1.091-2.962 15.983-3.874 1.084 2.943-10.444 7.848 13.033-0.824 1.077 2.924-14.664 7.452-1.095-2.971 10.808-5.479 0.129 0.494-12.355 1.137-1.06-2.877 10.124-7.19 0.208 0.507z" fill="#000000" data-fill-palette-color="accent"></path><path d="M18.377 157.313l-1.904-2.763 16.355-5.057 2.345 3.401-10.548 13.485-1.926-2.796 2.232-2.796-3.158-4.582zM31.669 152.758l-7.043 2.412 2.282 3.311z" fill="#000000" data-fill-palette-color="accent"></path><path d="M32.632 174.876l-2.367-2.249 11.254-11.842 4.9 4.656c0.467 0.443 0.849 0.913 1.148 1.407 0.299 0.504 0.472 1.04 0.52 1.607 0.043 0.572-0.08 1.187-0.368 1.847-0.293 0.655-0.805 1.368-1.537 2.138v0c-0.517 0.544-1.008 0.955-1.476 1.234-0.472 0.284-0.913 0.465-1.324 0.541-0.406 0.081-0.793 0.088-1.161 0.023-0.363-0.061-0.708-0.156-1.035-0.284v0l-2.311 6.854-2.418-2.297 2.264-6.198c-0.125-0.119-0.27-0.261-0.433-0.426-0.159-0.16-0.325-0.323-0.498-0.487-0.168-0.16-0.339-0.322-0.513-0.487-0.168-0.16-0.318-0.311-0.448-0.453v0zM41.863 165.163l-3.251 3.421 2.115 2.009c0.212 0.201 0.429 0.358 0.653 0.469 0.219 0.107 0.455 0.157 0.708 0.151 0.253-0.016 0.523-0.103 0.81-0.26 0.278-0.157 0.583-0.412 0.917-0.763v0c0.315-0.332 0.545-0.641 0.687-0.926 0.134-0.285 0.197-0.55 0.191-0.793-0.016-0.244-0.085-0.47-0.207-0.678-0.127-0.213-0.297-0.42-0.509-0.621v0z" fill="#000000" data-fill-palette-color="accent"></path><path d="M51.586 188.901l-2.921-1.609 4.461-16.193 2.956 1.628-3.258 11.366 8.246-8.62 2.634 1.451-2.892 11.567 7.863-8.83 2.956 1.627-11.307 12.424-2.913-1.604 2.657-11.697z" fill="#000000" data-fill-palette-color="accent"></path><path d="M75.067 199.437v0c-0.339-0.094-0.72-0.235-1.143-0.421-0.423-0.187-0.805-0.448-1.146-0.784-0.339-0.342-0.575-0.78-0.709-1.313-0.134-0.533-0.089-1.203 0.135-2.009v0l2.444-8.785c0.194-0.697 0.461-1.249 0.802-1.658 0.341-0.408 0.728-0.697 1.16-0.865 0.428-0.177 0.872-0.26 1.33-0.25 0.454 0.002 0.889 0.061 1.305 0.177v0c1.061 0.295 1.998 0.57 2.809 0.823 0.803 0.258 1.526 0.493 2.17 0.706 0.642 0.22 1.223 0.433 1.743 0.641v0l-0.733 2.637-5.87-1.633c-0.435-0.121-0.803-0.11-1.105 0.034-0.302 0.143-0.514 0.436-0.636 0.877v0l-0.633 2.273 6.187 1.907-0.694 2.493-6.28-1.571-0.603 2.168c-0.103 0.371-0.122 0.675-0.058 0.914 0.065 0.238 0.188 0.428 0.37 0.567 0.183 0.134 0.39 0.232 0.62 0.297v0l5.927 1.649-0.734 2.637c-0.64-0.102-1.346-0.237-2.119-0.403-0.772-0.173-1.545-0.351-2.322-0.532-0.781-0.19-1.52-0.381-2.217-0.576z" fill="#000000" data-fill-palette-color="accent"></path><path d="M94.013 202.608l-3.279-0.2 0.995-16.307 2.624 0.161 6.17 11.168 0.656-10.752 3.269 0.2-0.995 16.306-2.623-0.16-6.16-11.168z" fill="#000000" data-fill-palette-color="accent"></path><path d="M129.749 198.99v0c-0.92 0.259-1.761 0.382-2.523 0.369-0.762-0.013-1.466-0.235-2.111-0.667-0.652-0.43-1.248-1.138-1.788-2.123-0.546-0.984-1.057-2.319-1.532-4.006v0c-0.459-1.629-0.704-3.001-0.735-4.116-0.031-1.115 0.118-2.029 0.448-2.743 0.336-0.715 0.828-1.285 1.474-1.708 0.644-0.43 1.414-0.77 2.308-1.022v0c0.703-0.198 1.376-0.343 2.018-0.434 0.635-0.096 1.217-0.16 1.746-0.192 0.527-0.038 0.978-0.041 1.353-0.008v0l0.688 2.443c-0.272 0.014-0.633 0.054-1.084 0.119-0.442 0.069-0.947 0.163-1.513 0.282-0.56 0.116-1.147 0.261-1.76 0.433v0c-0.594 0.167-1.08 0.377-1.458 0.628-0.382 0.259-0.647 0.603-0.795 1.031-0.14 0.432-0.176 1.004-0.107 1.715 0.071 0.718 0.26 1.62 0.566 2.706v0c0.295 1.048 0.593 1.898 0.894 2.551 0.293 0.648 0.614 1.127 0.963 1.435 0.349 0.309 0.752 0.478 1.208 0.508 0.457 0.03 1.004-0.045 1.644-0.225v0c1.08-0.304 1.949-0.57 2.609-0.797 0.658-0.234 1.187-0.438 1.586-0.612v0l0.683 2.424c-0.347 0.236-0.758 0.468-1.231 0.699-0.465 0.234-0.987 0.461-1.567 0.679-0.588 0.214-1.249 0.424-1.984 0.631z" fill="#000000" data-fill-palette-color="accent"></path><path d="M145.775 192.469l-2.895 1.51-7.556-14.484 2.895-1.511 3.145 6.029 5.463-2.85-3.144-6.029 2.912-1.519 7.556 14.484-2.912 1.519-3.053-5.852-5.464 2.851z" fill="#000000" data-fill-palette-color="accent"></path><path d="M164.967 180.094v0c-0.27 0.225-0.602 0.459-0.996 0.701-0.394 0.242-0.826 0.408-1.296 0.498-0.474 0.084-0.969 0.03-1.484-0.162-0.515-0.193-1.04-0.61-1.576-1.252v0l-5.842-7.003c-0.463-0.555-0.766-1.089-0.908-1.601-0.142-0.512-0.16-0.995-0.053-1.447 0.097-0.453 0.281-0.865 0.55-1.237 0.26-0.372 0.555-0.697 0.886-0.973v0c0.846-0.706 1.604-1.321 2.273-1.844 0.668-0.514 1.273-0.976 1.814-1.384 0.545-0.403 1.051-0.76 1.518-1.072v0l1.754 2.103-4.679 3.903c-0.347 0.289-0.546 0.599-0.599 0.928-0.053 0.33 0.067 0.67 0.36 1.022v0l1.511 1.812 5.084-4.008 1.658 1.987-4.861 4.276 1.442 1.727c0.247 0.296 0.486 0.485 0.719 0.567 0.233 0.082 0.459 0.089 0.677 0.019 0.214-0.075 0.413-0.189 0.596-0.342v0l4.724-3.941 1.754 2.102c-0.448 0.468-0.96 0.974-1.536 1.515-0.581 0.537-1.167 1.073-1.757 1.608-0.6 0.535-1.177 1.034-1.733 1.498z" fill="#000000" data-fill-palette-color="accent"></path><path d="M178.259 166.438l-2.027 2.56-12.808-10.14 4.195-5.3c0.4-0.505 0.832-0.928 1.298-1.27 0.475-0.343 0.993-0.564 1.553-0.663 0.565-0.094 1.19-0.027 1.873 0.201 0.679 0.233 1.435 0.679 2.267 1.337v0c0.588 0.465 1.042 0.918 1.363 1.359 0.326 0.444 0.545 0.867 0.658 1.27 0.117 0.397 0.159 0.782 0.127 1.154-0.028 0.367-0.091 0.719-0.189 1.057v0l7.035 1.683-2.07 2.615-6.377-1.696c-0.107 0.135-0.235 0.292-0.385 0.47-0.145 0.173-0.292 0.353-0.44 0.54-0.144 0.182-0.29 0.367-0.439 0.554-0.144 0.182-0.281 0.345-0.411 0.487v0zM167.753 158.121l3.7 2.929 1.81-2.287c0.181-0.229 0.317-0.46 0.409-0.693 0.087-0.227 0.116-0.467 0.086-0.718-0.039-0.251-0.149-0.512-0.332-0.784-0.182-0.262-0.462-0.544-0.842-0.844v0c-0.359-0.284-0.687-0.485-0.984-0.602-0.296-0.107-0.565-0.147-0.808-0.118-0.241 0.038-0.46 0.127-0.656 0.267-0.2 0.146-0.391 0.334-0.573 0.563v0z" fill="#000000" data-fill-palette-color="accent"></path><path d="M189.489 149.697l-1.592 2.852-14.265-7.962 1.592-2.851z" fill="#000000" data-fill-palette-color="accent"></path><path d="M194.349 138.214l-1.104 3.073-11.861-4.263c-0.681-0.245-1.212-0.552-1.594-0.922-0.382-0.37-0.641-0.777-0.778-1.221-0.145-0.44-0.196-0.888-0.151-1.345 0.036-0.453 0.127-0.882 0.273-1.287v0c0.18-0.5 0.405-1.117 0.676-1.852 0.273-0.741 0.582-1.522 0.926-2.343 0.345-0.821 0.697-1.604 1.057-2.35v0l2.576 0.926-2.081 5.79c-0.155 0.431-0.159 0.796-0.013 1.095 0.155 0.295 0.42 0.51 0.794 0.645v0l2.614 0.94 2.357-6.029 2.427 0.872-2.02 6.15z" fill="#000000" data-fill-palette-color="accent"></path><path d="M2.305 103.778c0-3.447 2.794-6.241 6.24-6.24 3.447 0 6.241 2.794 6.241 6.24 0 3.447-2.794 6.241-6.241 6.241-3.447 0-6.241-2.794-6.24-6.241z" fill="#000000" data-fill-palette-color="accent"></path><path d="M188.398 103.778c0-3.447 2.794-6.241 6.241-6.24 3.447 0 6.241 2.794 6.24 6.24 0 3.447-2.794 6.241-6.24 6.241-3.447 0-6.241-2.794-6.241-6.241z" fill="#000000" data-fill-palette-color="accent"></path></g></svg></g></svg></g></svg></g><defs></defs></svg><rect width="395.52" height="129.48739693491035" fill="none" stroke="none" visibility="hidden"></rect></g></svg></g></svg>
