<svg xmlns="http://www.w3.org/2000/svg" version="1.1" xmlns:xlink="http://www.w3.org/1999/xlink" xmlns:svgjs="http://svgjs.dev/svgjs" width="1000" height="1012" viewBox="0 0 1000 1012"><g transform="matrix(1,0,0,1,0.8839346321526591,0.40971659919023296)"><svg viewBox="0 0 244 247" data-background-color="#ffffff" preserveAspectRatio="xMidYMid meet" height="1012" width="1000" xmlns="http://www.w3.org/2000/svg" xmlns:xlink="http://www.w3.org/1999/xlink"><g id="tight-bounds" transform="matrix(1,0,0,1,-0.21567994975470128,-0.09999999999999432)"><svg viewBox="0 0 244.43135999999996 247.2" height="247.2" width="244.43135999999996"><g><svg></svg></g><g><svg viewBox="0 0 244.43135999999996 247.2" height="247.2" width="244.43135999999996"><g transform="matrix(1,0,0,1,0,103.84004242758621)"><svg viewBox="0 0 244.43135999999996 39.51991514482758" height="39.51991514482758" width="244.43135999999996"><g><svg viewBox="0 0 244.43135999999996 39.51991514482758" height="39.51991514482758" width="244.43135999999996"><g><svg viewBox="0 0 244.43135999999996 39.51991514482758" height="39.51991514482758" width="244.43135999999996"><g><svg viewBox="0 0 244.43135999999996 39.51991514482758" height="39.51991514482758" width="244.43135999999996"><g id="textblocktransform"><svg viewBox="0 0 244.43135999999996 39.51991514482758" height="39.51991514482758" width="244.43135999999996" id="textblock"><g><svg viewBox="0 0 244.43135999999996 39.51991514482758" height="39.51991514482758" width="244.43135999999996"><g transform="matrix(1,0,0,1,0,0)"><svg width="244.43135999999996" viewBox="3.4000000953674316 -37 231.97000122070312 37.5099983215332" height="39.51991514482758" data-palette-color="#636365"><path d="M12.8-6.45L12.05-6.45 9-16.4Q9-16.4 8.65-17.53 8.3-18.65 7.73-20.4 7.15-22.15 6.53-24.13 5.9-26.1 5.33-27.85 4.75-29.6 4.4-30.73 4.05-31.85 4.05-31.85L4.05-31.85 4.45-35 10.7-14.65Q10.7-14.65 11-13.68 11.3-12.7 11.7-11.4 12.1-10.1 12.4-9.13 12.7-8.15 12.7-8.15L12.7-8.15Q12.7-8.15 13-9.1 13.3-10.05 13.68-11.3 14.05-12.55 14.35-13.5 14.65-14.45 14.65-14.45L14.65-14.45 20.9-34.5 21.25-31.5Q21.25-31.5 20.9-30.4 20.55-29.3 20.03-27.6 19.5-25.9 18.88-23.95 18.25-22 17.73-20.3 17.2-18.6 16.85-17.5 16.5-16.4 16.5-16.4L16.5-16.4 13.35-6.95Q13.2-6.45 12.8-6.45L12.8-6.45ZM3.4 0L3.4 0 3.4-34.5Q3.4-34.75 3.55-34.88 3.7-35 3.9-35L3.9-35 4.45-35 4.6-34.3 4.6-31.55Q4.6-31.55 4.6-30.55 4.6-29.55 4.6-27.95 4.6-26.35 4.6-24.58 4.6-22.8 4.6-21.2 4.6-19.6 4.6-18.6 4.6-17.6 4.6-17.6L4.6-17.6 4.6-0.5Q4.6-0.25 4.55-0.15 4.5-0.05 4.25-0.03 4 0 3.4 0ZM20.9 0L20.9 0 20.9-17.1Q20.9-17.1 20.9-18.2 20.9-19.3 20.9-21.05 20.9-22.8 20.9-24.73 20.9-26.65 20.9-28.4 20.9-30.15 20.9-31.25 20.9-32.35 20.9-32.35L20.9-32.35 20.9-32.95 20.9-34.5Q20.9-34.5 21-34.75 21.1-35 21.4-35L21.4-35Q21.75-35 21.9-35 22.05-35 22.08-35 22.1-35 22.1-35L22.1-35 22.1-0.5Q22.1-0.25 22.05-0.15 22-0.05 21.75-0.03 21.5 0 20.9 0ZM35 0.5L35 0.5Q33.65 0.55 32.37 0.35 31.1 0.15 30.05-0.55 29-1.25 28.37-2.73 27.75-4.2 27.75-6.75L27.75-6.75Q27.75-9.45 28.45-11.05 29.15-12.65 30.35-13.48 31.55-14.3 33.05-14.58 34.55-14.85 36.1-14.85L36.1-14.85Q37.4-14.85 38.57-14.73 39.75-14.6 40.65-14.35L40.65-14.35Q40.65-14.35 40.65-15.28 40.65-16.2 40.65-17.38 40.65-18.55 40.65-19.25L40.65-19.25Q40.65-21.4 40-22.48 39.35-23.55 38.22-23.93 37.1-24.3 35.7-24.3L35.7-24.3Q32.85-24.3 30.8-23.88 28.75-23.45 27.9-23L27.9-23Q27.8-23.2 27.75-23.33 27.7-23.45 27.7-23.65L27.7-23.65Q27.7-23.9 27.75-24.08 27.8-24.25 27.95-24.3L27.95-24.3Q28.8-24.75 31.07-25.13 33.35-25.5 35.95-25.5L35.95-25.5Q38.75-25.5 40.3-24.18 41.85-22.85 41.85-19.45L41.85-19.45 41.85-16.15Q41.85-13.3 41.8-10.68 41.75-8.05 41.7-5.73 41.65-3.4 41.55-1.4L41.55-1.4Q40.95-1.05 39.37-0.28 37.8 0.5 35 0.5ZM35.35-0.7L35.35-0.7Q37.05-0.7 38.45-1.2 39.85-1.7 40.35-2.15L40.35-2.15Q40.45-3.5 40.52-5.35 40.6-7.2 40.62-9.25 40.65-11.3 40.65-13.2L40.65-13.2Q39.7-13.45 38.5-13.6 37.3-13.75 36.35-13.75L36.35-13.75Q34.95-13.75 33.62-13.55 32.3-13.35 31.25-12.68 30.2-12 29.57-10.6 28.95-9.2 28.95-6.8L28.95-6.8Q28.95-4.55 29.47-3.3 30-2.05 30.92-1.5 31.85-0.95 33-0.83 34.15-0.7 35.35-0.7ZM48 0L48 0 48-23.3Q49.75-24.55 51.45-25.03 53.15-25.5 54.55-25.5L54.55-25.5Q56.3-25.5 57.3-25.1 58.3-24.7 58.3-24.15L58.3-24.15Q58.3-23.95 58.2-23.7 58.1-23.45 58-23.35L58-23.35Q57.45-23.7 56.62-24 55.8-24.3 54.65-24.3L54.65-24.3Q53.1-24.3 51.72-23.88 50.35-23.45 49.2-22.55L49.2-22.55 49.2-0.5Q49.2-0.25 49.12-0.15 49.05-0.05 48.8-0.03 48.55 0 48 0ZM79.04 0.45L79.04 0.45Q79.04 0.45 78.82-0.35 78.59-1.15 78.24-2.4L78.24-2.4 77.29-5.9Q76.54-8.6 75.89-11.05 75.24-13.5 74.69-15.55 74.14-17.6 73.77-19.1 73.39-20.6 73.17-21.43 72.94-22.25 72.94-22.25L72.94-22.25 72.69-23.5Q72.64-23.75 72.74-23.88 72.84-24 73.19-24L73.19-24 73.74-24 76.14-14.65Q76.79-12.1 77.37-9.83 77.94-7.55 78.39-5.8 78.84-4.05 79.09-3.05 79.34-2.05 79.34-2.05L79.34-2.05 79.39-2.05Q79.59-3.1 80.02-5.13 80.44-7.15 81.02-9.7 81.59-12.25 82.14-14.75L82.14-14.75 84.39-24.5Q84.44-24.75 84.52-24.85 84.59-24.95 84.87-24.98 85.14-25 85.79-25L85.79-25Q85.79-25 85.47-23.63 85.14-22.25 84.59-19.98 84.04-17.7 83.39-14.98 82.74-12.25 82.09-9.55 81.44-6.85 80.89-4.58 80.34-2.3 80.02-0.93 79.69 0.45 79.69 0.45L79.69 0.45Q79.69 0.45 79.37 0.45 79.04 0.45 79.04 0.45ZM67.14 0.45L67.14 0.45Q67.14 0.45 66.94-0.23 66.74-0.9 66.49-2L66.49-2Q66.09-3.65 65.52-5.9 64.94-8.15 64.32-10.7 63.69-13.25 63.04-15.7 62.39-18.15 61.87-20.13 61.34-22.1 61.04-23.3 60.74-24.5 60.74-24.5L60.74-24.5Q60.69-24.75 60.74-24.85 60.79-24.95 61.04-24.98 61.29-25 61.89-25L61.89-25 64.44-14.75Q65.09-12.15 65.64-9.85 66.19-7.55 66.62-5.8 67.04-4.05 67.27-3.05 67.49-2.05 67.49-2.05L67.49-2.05 67.54-2.05Q67.79-3.2 68.32-5.4 68.84-7.6 69.44-10.13 70.04-12.65 70.54-14.85L70.54-14.85 72.49-23.5Q72.54-23.75 72.67-23.88 72.79-24 72.99-24L72.99-24 73.29-24Q73.54-24 73.67-23.93 73.79-23.85 73.82-23.75 73.84-23.65 73.79-23.5L73.79-23.5 73.44-22.25Q73.44-22.25 73.24-21.43 73.04-20.6 72.69-19.07 72.34-17.55 71.84-15.5 71.34-13.45 70.74-11 70.14-8.55 69.44-5.85L69.44-5.85 67.84 0.45Q67.84 0.45 67.67 0.45 67.49 0.45 67.32 0.45 67.14 0.45 67.14 0.45ZM97.24 0.5L97.24 0.5Q95.44 0.5 93.89 0.13 92.34-0.25 91.19-1.4 90.04-2.55 89.42-4.88 88.79-7.2 88.79-11.05L88.79-11.05Q88.79-16 89.64-18.93 90.49-21.85 91.84-23.25 93.19-24.65 94.77-25.08 96.34-25.5 97.79-25.5L97.79-25.5Q101.19-25.5 102.62-23.3 104.04-21.1 104.04-17.7L104.04-17.7Q104.04-16.25 103.97-14.85 103.89-13.45 103.69-12.3L103.69-12.3Q101.44-11.85 98.99-11.65 96.54-11.45 94.44-11.4 92.34-11.35 91.04-11.38 89.74-11.4 89.74-11.4L89.74-11.4 89.74-12.6Q89.74-12.6 91.07-12.58 92.39-12.55 94.42-12.6 96.44-12.65 98.64-12.83 100.84-13 102.64-13.35L102.64-13.35Q102.74-14.5 102.79-15.35 102.84-16.2 102.84-17.1L102.84-17.1Q102.79-20.4 101.79-22.35 100.79-24.3 97.84-24.3L97.84-24.3Q96.64-24.3 95.29-24 93.94-23.7 92.72-22.45 91.49-21.2 90.74-18.45 89.99-15.7 89.99-10.85L89.99-10.85Q89.99-7.35 90.54-5.33 91.09-3.3 92.09-2.3 93.09-1.3 94.39-1 95.69-0.7 97.19-0.7L97.19-0.7Q99.04-0.7 100.77-1.18 102.49-1.65 103.59-2.55L103.59-2.55Q103.74-2.25 103.79-2 103.84-1.75 103.84-1.6L103.84-1.6Q103.84-1.25 102.92-0.75 101.99-0.25 100.49 0.13 98.99 0.5 97.24 0.5ZM109.29 0L109.29 0 109.29-23.7Q110.64-24.25 111.96-24.65 113.29-25.05 114.69-25.28 116.09-25.5 117.54-25.5L117.54-25.5Q120.34-25.5 121.79-24.68 123.24-23.85 123.74-22.28 124.24-20.7 124.24-18.4L124.24-18.4 124.24-0.5Q124.24-0.25 124.19-0.15 124.14-0.05 123.89-0.03 123.64 0 123.04 0L123.04 0 123.04-18.2Q123.04-21.3 122.01-22.8 120.99-24.3 117.59-24.3L117.59-24.3Q116.19-24.3 114.11-23.95 112.04-23.6 110.49-22.85L110.49-22.85 110.49-0.5Q110.49-0.25 110.44-0.15 110.39-0.05 110.14-0.03 109.89 0 109.29 0ZM147.18 0.45L147.18 0.45Q146.23 0.45 145.13 0.28 144.03 0.1 142.93-0.68 141.83-1.45 140.93-3.15 140.03-4.85 139.48-7.85 138.93-10.85 138.93-15.55L138.93-15.55Q138.93-21.05 139.48-24.68 140.03-28.3 141.01-30.48 141.98-32.65 143.21-33.73 144.43-34.8 145.81-35.13 147.18-35.45 148.48-35.45L148.48-35.45Q149.88-35.45 150.91-35.05 151.93-34.65 152.51-34.1 153.08-33.55 153.08-33.15L153.08-33.15Q153.08-32.95 152.98-32.7 152.88-32.45 152.73-32.35L152.73-32.35Q152.58-32.55 151.98-33 151.38-33.45 150.43-33.88 149.48-34.3 148.33-34.3L148.33-34.3Q147.18-34.3 146.03-33.98 144.88-33.65 143.83-32.6 142.78-31.55 141.96-29.48 141.13-27.4 140.66-23.95 140.18-20.5 140.18-15.3L140.18-15.3Q140.18-10.45 140.83-7.55 141.48-4.65 142.51-3.2 143.53-1.75 144.78-1.28 146.03-0.8 147.23-0.8L147.23-0.8Q149.23-0.8 150.88-1.83 152.53-2.85 153.13-3.8L153.13-3.8Q153.23-3.6 153.36-3.38 153.48-3.15 153.48-2.9L153.48-2.9Q153.48-2.35 152.63-1.55 151.78-0.75 150.36-0.15 148.93 0.45 147.18 0.45ZM158.28 0L158.28 0 158.28-36Q158.28-36.4 158.38-36.55 158.48-36.7 158.76-36.73 159.03-36.75 159.48-36.75L159.48-36.75 159.48-23.15Q161.23-24.45 163.11-24.98 164.98-25.5 166.68-25.5L166.68-25.5Q169.28-25.5 170.66-24.65 172.03-23.8 172.53-22.28 173.03-20.75 173.03-18.65L173.03-18.65 173.03-0.5Q173.03-0.25 172.98-0.15 172.93-0.05 172.68-0.03 172.43 0 171.83 0L171.83 0 171.83-18.65Q171.83-21.25 170.81-22.78 169.78-24.3 166.58-24.3L166.58-24.3Q165.03-24.3 163.06-23.7 161.08-23.1 159.48-21.5L159.48-21.5 159.48-0.5Q159.48-0.25 159.43-0.15 159.38-0.05 159.13-0.03 158.88 0 158.28 0ZM187.03 0.5L187.03 0.5Q185.23 0.5 183.68 0.13 182.13-0.25 180.98-1.4 179.83-2.55 179.2-4.88 178.58-7.2 178.58-11.05L178.58-11.05Q178.58-16 179.43-18.93 180.28-21.85 181.63-23.25 182.98-24.65 184.55-25.08 186.13-25.5 187.58-25.5L187.58-25.5Q190.98-25.5 192.4-23.3 193.83-21.1 193.83-17.7L193.83-17.7Q193.83-16.25 193.75-14.85 193.68-13.45 193.48-12.3L193.48-12.3Q191.23-11.85 188.78-11.65 186.33-11.45 184.23-11.4 182.13-11.35 180.83-11.38 179.53-11.4 179.53-11.4L179.53-11.4 179.53-12.6Q179.53-12.6 180.85-12.58 182.18-12.55 184.2-12.6 186.23-12.65 188.43-12.83 190.63-13 192.43-13.35L192.43-13.35Q192.53-14.5 192.58-15.35 192.63-16.2 192.63-17.1L192.63-17.1Q192.58-20.4 191.58-22.35 190.58-24.3 187.63-24.3L187.63-24.3Q186.43-24.3 185.08-24 183.73-23.7 182.5-22.45 181.28-21.2 180.53-18.45 179.78-15.7 179.78-10.85L179.78-10.85Q179.78-7.35 180.33-5.33 180.88-3.3 181.88-2.3 182.88-1.3 184.18-1 185.48-0.7 186.98-0.7L186.98-0.7Q188.83-0.7 190.55-1.18 192.28-1.65 193.38-2.55L193.38-2.55Q193.53-2.25 193.58-2 193.63-1.75 193.63-1.6L193.63-1.6Q193.63-1.25 192.7-0.75 191.78-0.25 190.28 0.13 188.78 0.5 187.03 0.5ZM199.08 0L199.08 0 199.08-23.3Q200.83-24.55 202.53-25.03 204.23-25.5 205.63-25.5L205.63-25.5Q207.38-25.5 208.38-25.1 209.38-24.7 209.38-24.15L209.38-24.15Q209.38-23.95 209.28-23.7 209.18-23.45 209.08-23.35L209.08-23.35Q208.53-23.7 207.7-24 206.88-24.3 205.73-24.3L205.73-24.3Q204.18-24.3 202.8-23.88 201.43-23.45 200.28-22.55L200.28-22.55 200.28-0.5Q200.28-0.25 200.2-0.15 200.13-0.05 199.88-0.03 199.63 0 199.08 0ZM213.72 0L213.72 0 213.72-24.25Q213.72-24.65 213.82-24.8 213.92-24.95 214.2-24.98 214.47-25 214.92-25L214.92-25 214.92-0.5Q214.92-0.25 214.87-0.15 214.82-0.05 214.57-0.03 214.32 0 213.72 0ZM214.27-30.7L214.27-30.7Q213.77-30.75 213.57-31.1 213.37-31.45 213.42-32.1L213.42-32.1Q213.47-32.8 213.7-33.15 213.92-33.5 214.37-33.5L214.37-33.5Q214.87-33.5 215.1-33.1 215.32-32.7 215.27-32L215.27-32Q215.22-31.35 215.02-31.03 214.82-30.7 214.27-30.7ZM224.27 0L223.57 0 223.57-23.8 219.32-23.8Q219.32-24.35 219.35-24.6 219.37-24.85 219.47-24.93 219.57-25 219.82-25L219.82-25 223.57-25 223.57-28.35Q223.57-31.25 224.32-32.98 225.07-34.7 226.25-35.58 227.42-36.45 228.8-36.73 230.17-37 231.42-37L231.42-37Q233.62-37 234.5-36.63 235.37-36.25 235.37-36L235.37-36Q235.37-35.8 235.32-35.63 235.27-35.45 235.17-35.25L235.17-35.25Q234.27-35.5 233.4-35.65 232.52-35.8 231.32-35.8L231.32-35.8Q230.27-35.8 229.12-35.6 227.97-35.4 226.97-34.65 225.97-33.9 225.37-32.38 224.77-30.85 224.77-28.15L224.77-28.15 224.77-25 230.87-25Q230.87-24.45 230.85-24.2 230.82-23.95 230.72-23.88 230.62-23.8 230.37-23.8L230.37-23.8 224.77-23.8 224.77-0.5Q224.77-0.25 224.65-0.13 224.52 0 224.27 0L224.27 0Z" opacity="1" transform="matrix(1,0,0,1,0,0)" fill="#636365" class="wordmark-text-0" data-fill-palette-color="primary" id="text-0"></path></svg></g></svg></g></svg></g></svg></g><g></g></svg></g></svg></g></svg></g><path d="M0 97.84L0 1 244.431 1 244.431 97.84 240.867 97.84 240.867 4.564 3.564 4.564 3.564 97.84 0 97.84M0 149.36L0 246.2 244.431 246.2 244.431 149.36 240.867 149.36 240.867 242.636 3.564 242.636 3.564 149.36 0 149.36" fill="#636365" stroke="transparent" data-fill-palette-color="primary"></path></svg></g><defs></defs></svg><rect width="244.43135999999996" height="247.2" fill="none" stroke="none" visibility="hidden"></rect></g></svg></g></svg>